<?xml version="1.0" encoding="utf-8"?>
<svg width="717.4" height="92.501" viewBox="0 0 717.4 92.501" xmlns="http://www.w3.org/2000/svg">
<g id="svgGroup" stroke-linecap="round" fill-rule="nonzero" font-size="9pt" stroke="#000" stroke-width="0.25mm" fill="#000" style="stroke:#000;stroke-width:0.25mm;fill:#000"><path class="path" d="M 466.1 48.2 L 464.5 45 L 421.6 45 L 421.6 51.1 L 466.1 51.1 L 466.1 48.2 L 466.1 48.8 L 458.5 48.8 L 458.5 48.2 Q 458.5 42.4 456.25 38.05 A 17.979 17.979 0 0 0 452.608 33.159 A 16.547 16.547 0 0 0 450.15 31.25 A 15.741 15.741 0 0 0 442.31 28.822 A 19.034 19.034 0 0 0 441.4 28.8 A 19.794 19.794 0 0 0 436.177 29.465 A 16.509 16.509 0 0 0 431.9 31.3 Q 427.8 33.8 425.5 38.2 A 20.011 20.011 0 0 0 423.472 44.578 A 25.982 25.982 0 0 0 423.2 48.4 A 22.965 22.965 0 0 0 423.906 54.196 A 19.158 19.158 0 0 0 425.7 58.7 Q 428.2 63.2 432.55 65.7 A 18.772 18.772 0 0 0 439.667 68.024 A 23.762 23.762 0 0 0 442.6 68.2 A 18.905 18.905 0 0 0 457.231 61.722 A 25.812 25.812 0 0 0 459.3 59.1 L 464.5 64 Q 460.6 69 455.1 71.85 A 25.351 25.351 0 0 1 446.575 74.449 A 32.15 32.15 0 0 1 442.5 74.7 A 30.661 30.661 0 0 1 434.247 73.625 A 26.313 26.313 0 0 1 428.55 71.3 Q 422.4 67.9 418.9 62 A 25.124 25.124 0 0 1 415.523 51.291 A 31.076 31.076 0 0 1 415.4 48.5 A 29.473 29.473 0 0 1 416.345 40.905 A 24.809 24.809 0 0 1 418.75 35 Q 422.1 29.1 428 25.7 A 25.612 25.612 0 0 1 438.869 22.401 A 31.386 31.386 0 0 1 441.4 22.3 A 26.313 26.313 0 0 1 448.782 23.302 A 22.508 22.508 0 0 1 454.15 25.65 Q 459.7 29 462.9 34.8 A 25.609 25.609 0 0 1 465.818 43.847 A 32.657 32.657 0 0 1 466.1 48.2 Z M 661 48.2 L 659.4 45 L 616.5 45 L 616.5 51.1 L 661 51.1 L 661 48.2 L 661 48.8 L 653.4 48.8 L 653.4 48.2 Q 653.4 42.4 651.15 38.05 A 17.979 17.979 0 0 0 647.508 33.159 A 16.547 16.547 0 0 0 645.05 31.25 A 15.741 15.741 0 0 0 637.21 28.822 A 19.034 19.034 0 0 0 636.3 28.8 A 19.794 19.794 0 0 0 631.077 29.465 A 16.509 16.509 0 0 0 626.8 31.3 Q 622.7 33.8 620.4 38.2 A 20.011 20.011 0 0 0 618.372 44.578 A 25.982 25.982 0 0 0 618.1 48.4 A 22.965 22.965 0 0 0 618.806 54.196 A 19.158 19.158 0 0 0 620.6 58.7 Q 623.1 63.2 627.45 65.7 A 18.772 18.772 0 0 0 634.567 68.024 A 23.762 23.762 0 0 0 637.5 68.2 A 18.905 18.905 0 0 0 652.131 61.722 A 25.812 25.812 0 0 0 654.2 59.1 L 659.4 64 Q 655.5 69 650 71.85 A 25.351 25.351 0 0 1 641.475 74.449 A 32.15 32.15 0 0 1 637.4 74.7 A 30.661 30.661 0 0 1 629.147 73.625 A 26.313 26.313 0 0 1 623.45 71.3 Q 617.3 67.9 613.8 62 A 25.124 25.124 0 0 1 610.423 51.291 A 31.076 31.076 0 0 1 610.3 48.5 A 29.473 29.473 0 0 1 611.245 40.905 A 24.809 24.809 0 0 1 613.65 35 Q 617 29.1 622.9 25.7 A 25.612 25.612 0 0 1 633.769 22.401 A 31.386 31.386 0 0 1 636.3 22.3 A 26.313 26.313 0 0 1 643.682 23.302 A 22.508 22.508 0 0 1 649.05 25.65 Q 654.6 29 657.8 34.8 A 25.609 25.609 0 0 1 660.718 43.847 A 32.657 32.657 0 0 1 661 48.2 Z M 7.7 8.4 L 7.7 73.1 L 0 73.1 L 0 1.6 L 27.7 1.6 A 34.004 34.004 0 0 1 33.755 2.114 A 24.872 24.872 0 0 1 40.05 4.1 A 20.69 20.69 0 0 1 45.654 7.948 A 18.727 18.727 0 0 1 48.25 11.1 Q 51.2 15.6 51.2 21.6 A 20.629 20.629 0 0 1 50.416 27.389 A 17.424 17.424 0 0 1 48.25 32.1 A 19.34 19.34 0 0 1 41.171 38.53 A 23.406 23.406 0 0 1 40.05 39.1 A 24.975 24.975 0 0 1 33.558 41.122 A 34.196 34.196 0 0 1 27.7 41.6 L 6.7 41.6 L 6.7 34.8 L 27.7 34.8 A 24.597 24.597 0 0 0 32.249 34.405 Q 34.84 33.917 36.888 32.827 A 12.911 12.911 0 0 0 39.15 31.3 A 11.433 11.433 0 0 0 43.154 23.83 A 16.466 16.466 0 0 0 43.3 21.6 A 14.874 14.874 0 0 0 42.74 17.411 A 11.158 11.158 0 0 0 39.15 11.9 Q 35 8.4 27.7 8.4 L 7.7 8.4 Z M 691.1 69.2 L 709.8 23.9 L 717.4 23.9 L 692.4 82 Q 690.3 86.9 687.2 89.7 A 9.643 9.643 0 0 1 683.875 91.614 Q 681.344 92.5 677.8 92.5 L 672.9 92.5 L 672.9 86.1 L 677.8 86.1 A 10.482 10.482 0 0 0 680.125 85.856 A 7.32 7.32 0 0 0 683.05 84.5 A 9.452 9.452 0 0 0 684.965 82.452 Q 685.77 81.302 686.4 79.8 L 689 73.3 L 667.7 23.9 L 675.7 23.9 L 694.3 69.2 L 691.1 69.2 Z M 599.3 43.9 L 599.3 73.1 L 591.9 73.1 L 591.9 44.7 A 27.661 27.661 0 0 0 591.566 40.248 Q 591.184 37.915 590.368 36.053 A 12.051 12.051 0 0 0 588.3 32.8 A 11.881 11.881 0 0 0 580.645 28.921 A 16.785 16.785 0 0 0 578.6 28.8 Q 574.2 28.8 570.3 31.1 Q 566.4 33.4 564 38.3 A 21.025 21.025 0 0 0 562.446 42.76 Q 561.917 45.016 561.719 47.671 A 44.743 44.743 0 0 0 561.6 51 L 561.6 73.1 L 554.2 73.1 L 554.2 23.9 L 561.5 23.9 L 561.5 38.8 L 560.2 38.8 Q 561.166 33.892 563.264 30.602 A 15.622 15.622 0 0 1 564.35 29.1 A 17.671 17.671 0 0 1 568.926 25.096 A 16.427 16.427 0 0 1 571.35 23.9 Q 575.4 22.3 579.9 22.3 Q 588.9 22.3 594.1 27.85 A 17.867 17.867 0 0 1 598.07 34.858 Q 598.916 37.564 599.18 40.823 A 38.098 38.098 0 0 1 599.3 43.9 Z M 253.4 60.3 L 258.7 65.2 Q 255.3 69.6 250.15 72.15 Q 245 74.7 238.5 74.7 A 28.212 28.212 0 0 1 230.597 73.628 A 24.268 24.268 0 0 1 225.15 71.3 Q 219.3 67.9 215.95 62 Q 212.6 56.1 212.6 48.5 A 29.473 29.473 0 0 1 213.545 40.905 A 24.809 24.809 0 0 1 215.95 35 Q 219.3 29.1 225.2 25.7 A 25.612 25.612 0 0 1 236.069 22.401 A 31.386 31.386 0 0 1 238.6 22.3 Q 245.1 22.3 250.2 24.85 Q 255.3 27.4 258.7 31.8 L 253.4 36.7 Q 251 33.1 247.4 30.95 A 14.665 14.665 0 0 0 242.844 29.212 Q 240.998 28.826 238.883 28.802 A 24.837 24.837 0 0 0 238.6 28.8 A 19.794 19.794 0 0 0 233.377 29.465 A 16.509 16.509 0 0 0 229.1 31.3 Q 225 33.8 222.7 38.25 Q 220.4 42.7 220.4 48.5 Q 220.4 54.3 222.7 58.75 Q 225 63.2 229.1 65.7 A 17.119 17.119 0 0 0 236.22 68.072 A 21.578 21.578 0 0 0 238.6 68.2 A 21.005 21.005 0 0 0 242.561 67.846 Q 245.094 67.359 247.131 66.207 A 13.24 13.24 0 0 0 247.4 66.05 Q 251 63.9 253.4 60.3 Z M 368.2 73.1 L 345.1 73.1 L 345.1 1.6 L 368.2 1.6 Q 379.2 1.6 387.55 6.2 Q 395.9 10.8 400.6 18.85 A 34.526 34.526 0 0 1 405.075 32.863 A 42.885 42.885 0 0 1 405.3 37.3 A 39.258 39.258 0 0 1 403.854 48.13 A 33.628 33.628 0 0 1 400.6 55.8 Q 395.9 63.9 387.55 68.5 A 36.822 36.822 0 0 1 374.816 72.651 A 47.258 47.258 0 0 1 368.2 73.1 Z M 352.8 8.6 L 352.8 66.1 L 368.2 66.1 A 37.065 37.065 0 0 0 375.905 65.336 A 28.086 28.086 0 0 0 383.65 62.5 Q 390.2 58.9 393.75 52.4 A 28.806 28.806 0 0 0 396.936 42.594 A 37.266 37.266 0 0 0 397.3 37.3 A 35.223 35.223 0 0 0 396.467 29.474 A 27.585 27.585 0 0 0 393.75 22.25 Q 390.2 15.8 383.65 12.2 A 28.614 28.614 0 0 0 374.545 9.107 A 38.196 38.196 0 0 0 368.2 8.6 L 352.8 8.6 Z M 82.2 42.8 L 98.4 42.8 L 98.4 48.8 L 83.2 48.8 A 30.409 30.409 0 0 0 78.491 49.145 Q 75.861 49.558 73.684 50.465 A 16.722 16.722 0 0 0 72.05 51.25 Q 68.094 53.429 67.655 57.781 A 11.159 11.159 0 0 0 67.6 58.9 A 9.433 9.433 0 0 0 68.182 62.278 A 8.345 8.345 0 0 0 70.9 65.9 A 11.576 11.576 0 0 0 75.277 68.003 Q 77.238 68.5 79.6 68.5 A 22.731 22.731 0 0 0 85.386 67.787 A 19.487 19.487 0 0 0 89 66.45 Q 93.2 64.4 95.75 60.7 A 16.335 16.335 0 0 0 98.547 52.87 A 19.582 19.582 0 0 0 98.6 52.2 L 101.6 53.9 A 20.824 20.824 0 0 1 100.532 60.649 A 18.791 18.791 0 0 1 98.65 64.6 A 20.538 20.538 0 0 1 90.823 71.83 A 24.211 24.211 0 0 1 90.5 72 A 24.065 24.065 0 0 1 81.913 74.532 A 29.908 29.908 0 0 1 78.7 74.7 A 25.929 25.929 0 0 1 73.592 74.219 A 19.865 19.865 0 0 1 68.85 72.65 A 17.799 17.799 0 0 1 64.871 70.063 A 14.999 14.999 0 0 1 62.25 67.1 A 13.897 13.897 0 0 1 59.909 59.659 A 16.885 16.885 0 0 1 59.9 59.1 A 15.527 15.527 0 0 1 60.537 54.566 A 12.909 12.909 0 0 1 62.8 50.25 A 16.712 16.712 0 0 1 67.804 46.059 A 21.672 21.672 0 0 1 70.75 44.7 Q 75.8 42.8 82.2 42.8 Z M 518.5 42.8 L 534.7 42.8 L 534.7 48.8 L 519.5 48.8 A 30.409 30.409 0 0 0 514.791 49.145 Q 512.161 49.558 509.984 50.465 A 16.722 16.722 0 0 0 508.35 51.25 Q 504.394 53.429 503.955 57.781 A 11.159 11.159 0 0 0 503.9 58.9 A 9.433 9.433 0 0 0 504.482 62.278 A 8.345 8.345 0 0 0 507.2 65.9 A 11.576 11.576 0 0 0 511.577 68.003 Q 513.538 68.5 515.9 68.5 A 22.731 22.731 0 0 0 521.686 67.787 A 19.487 19.487 0 0 0 525.3 66.45 Q 529.5 64.4 532.05 60.7 A 16.335 16.335 0 0 0 534.847 52.87 A 19.582 19.582 0 0 0 534.9 52.2 L 537.9 53.9 A 20.824 20.824 0 0 1 536.832 60.649 A 18.791 18.791 0 0 1 534.95 64.6 A 20.538 20.538 0 0 1 527.123 71.83 A 24.211 24.211 0 0 1 526.8 72 A 24.065 24.065 0 0 1 518.213 74.532 A 29.908 29.908 0 0 1 515 74.7 A 25.929 25.929 0 0 1 509.892 74.219 A 19.865 19.865 0 0 1 505.15 72.65 A 17.799 17.799 0 0 1 501.171 70.063 A 14.999 14.999 0 0 1 498.55 67.1 A 13.897 13.897 0 0 1 496.209 59.659 A 16.885 16.885 0 0 1 496.2 59.1 A 15.527 15.527 0 0 1 496.837 54.566 A 12.909 12.909 0 0 1 499.1 50.25 A 16.712 16.712 0 0 1 504.104 46.059 A 21.672 21.672 0 0 1 507.05 44.7 Q 512.1 42.8 518.5 42.8 Z M 283.7 46.7 L 315.7 73.1 L 304.7 73.1 L 274.2 47.6 L 275.2 47.6 L 302.7 23.9 L 312.9 23.9 L 283.7 48.5 L 283.7 46.7 Z M 104.6 42 L 104.6 73.1 L 97.5 73.1 L 97.5 63.5 L 97.4 60.7 L 97.4 42.3 A 15.531 15.531 0 0 0 96.796 37.859 A 11.941 11.941 0 0 0 93.4 32.4 A 13.434 13.434 0 0 0 87.306 29.221 Q 85.217 28.717 82.759 28.701 A 24.82 24.82 0 0 0 82.6 28.7 A 19.696 19.696 0 0 0 76.981 29.48 A 17.374 17.374 0 0 0 73.75 30.8 Q 69.8 32.9 66.8 36.5 L 61.6 31.5 A 30.029 30.029 0 0 1 69.736 25.249 A 28.55 28.55 0 0 1 70.85 24.7 Q 76 22.3 82.6 22.3 A 30.099 30.099 0 0 1 88.425 22.839 A 22.767 22.767 0 0 1 94.15 24.75 A 19.197 19.197 0 0 1 99.808 28.923 A 17.997 17.997 0 0 1 101.85 31.6 Q 104.6 36 104.6 42 Z M 540.9 42 L 540.9 73.1 L 533.8 73.1 L 533.8 63.5 L 533.7 60.7 L 533.7 42.3 A 15.531 15.531 0 0 0 533.096 37.859 A 11.941 11.941 0 0 0 529.7 32.4 A 13.434 13.434 0 0 0 523.606 29.221 Q 521.517 28.717 519.059 28.701 A 24.82 24.82 0 0 0 518.9 28.7 A 19.696 19.696 0 0 0 513.281 29.48 A 17.374 17.374 0 0 0 510.05 30.8 Q 506.1 32.9 503.1 36.5 L 497.9 31.5 A 30.029 30.029 0 0 1 506.036 25.249 A 28.55 28.55 0 0 1 507.15 24.7 Q 512.3 22.3 518.9 22.3 A 30.099 30.099 0 0 1 524.725 22.839 A 22.767 22.767 0 0 1 530.45 24.75 A 19.197 19.197 0 0 1 536.108 28.923 A 17.997 17.997 0 0 1 538.15 31.6 Q 540.9 36 540.9 42 Z M 182.4 23.1 L 183.5 23.1 L 183.5 30.3 L 181.5 30.3 Q 177.1 30.3 173.2 32.6 Q 169.3 34.9 166.9 39.8 A 21.025 21.025 0 0 0 165.346 44.26 Q 164.817 46.516 164.619 49.171 A 44.743 44.743 0 0 0 164.5 52.5 L 164.5 73.1 L 157.1 73.1 L 157.1 23.9 L 164.4 23.9 L 164.4 39.5 L 163.1 39.5 Q 164.3 33.5 167.3 29.9 A 18.804 18.804 0 0 1 171.197 26.33 A 16.449 16.449 0 0 1 174.25 24.7 Q 178.2 23.1 182.4 23.1 Z M 146.6 66.7 L 146.6 73.1 L 135 73.1 A 15.221 15.221 0 0 1 131.771 72.779 Q 129.712 72.332 128.165 71.263 A 8.733 8.733 0 0 1 126.95 70.25 A 9.284 9.284 0 0 1 124.57 66.038 Q 124.173 64.582 124.111 62.851 A 18.179 18.179 0 0 1 124.1 62.2 L 124.1 9.5 L 131.5 9.5 L 131.5 61.6 A 7.128 7.128 0 0 0 131.654 63.126 Q 131.872 64.125 132.403 64.871 A 4.179 4.179 0 0 0 132.8 65.35 Q 133.958 66.553 136.067 66.684 A 8.561 8.561 0 0 0 136.6 66.7 L 146.6 66.7 Z M 276.8 1.1 L 276.8 73.1 L 269.4 73.1 L 269.4 1.1 L 276.8 1.1 Z M 485.2 1.1 L 485.2 73.1 L 477.8 73.1 L 477.8 1.1 L 485.2 1.1 Z M 200.9 23.9 L 200.9 73.1 L 193.5 73.1 L 193.5 23.9 L 200.9 23.9 Z M 145.9 23.9 L 145.9 30.2 L 113.9 30.2 L 113.9 23.9 L 145.9 23.9 Z M 197.2 10.7 A 6.774 6.774 0 0 0 197.272 10.7 A 5.214 5.214 0 0 0 201.05 9.15 A 6.135 6.135 0 0 0 201.098 9.102 A 5.102 5.102 0 0 0 202.6 5.4 A 6.774 6.774 0 0 0 202.6 5.329 A 5.214 5.214 0 0 0 201.05 1.55 A 5.175 5.175 0 0 0 199.297 0.382 A 5.612 5.612 0 0 0 197.2 0 Q 195 0 193.4 1.55 A 5.184 5.184 0 0 0 192.225 3.228 A 5.43 5.43 0 0 0 191.8 5.4 Q 191.8 7.6 193.4 9.15 Q 195 10.7 197.2 10.7 Z" vector-effect="non-scaling-stroke"/>
</g>
</svg>